# xmcd
#
# Track frame offsets:
#	150
#	14912
#	32297
#	61547
#
# Disc length: 1226 seconds
#
# Revision: 1
# Processed by: cddbd v1.5.2PL0 Copyright (c) Steve Scherf et al.
# Submitted via: audiograbber 1.83.01
#
DISCID=2504c804
DTITLE=Mandana - Give me all your love (Maxi)
DYEAR=2002
DGENRE=Pop
TTITLE0=Give me all your love (Radio edit)
TTITLE1=Give me all your love (The Mix)
TTITLE2=Give me all your love (Club-Mix)
TTITLE3=Give me all your love (Flamingo-Mix)
EXTD=
EXTT0=
EXTT1=
EXTT2=
EXTT3=
PLAYORDER=
